<?xml version="1.0" encoding="utf-8"?>
<!-- Generator: Adobe Illustrator 18.1.1, SVG Export Plug-In . SVG Version: 6.00 Build 0)  -->
<!DOCTYPE svg PUBLIC "-//W3C//DTD SVG 1.1//EN" "http://www.w3.org/Graphics/SVG/1.1/DTD/svg11.dtd">
<svg version="1.1" id="Layer_1" xmlns="http://www.w3.org/2000/svg" xmlns:xlink="http://www.w3.org/1999/xlink" x="0px" y="0px"
	 viewBox="0 0 300 300" style="enable-background:new 0 0 300 300;" xml:space="preserve">
<style type="text/css">
	.st0{fill:#FFFFFF;}
</style>
<path class="st0" d="M150,2C68.3,2,2,68.3,2,150s66.3,148,148,148s148-66.3,148-148S231.7,2,150,2z M234.2,94.6l25.6-14.8
	c2.8-1.6,6.5-0.7,8.1,2.2c1.6,2.8,0.7,6.5-2.2,8.1l-25.6,14.8c-2.8,1.6-6.5,0.7-8.1-2.2C230.4,99.9,231.4,96.2,234.2,94.6z
	 M144.1,19.8c0-3.3,2.7-5.9,5.9-5.9c3.3,0,5.9,2.7,5.9,5.9v29.6c0,3.3-2.7,5.9-5.9,5.9c-3.3,0-5.9-2.7-5.9-5.9V19.8z M81.9,32.1
	c2.8-1.6,6.5-0.7,8.1,2.2l14.8,25.6c1.6,2.8,0.7,6.4-2.2,8.1c-2.8,1.6-6.5,0.7-8.1-2.2L79.8,40.2C78.1,37.3,79.1,33.7,81.9,32.1z
	 M13.8,150c0-3.3,2.7-5.9,5.9-5.9l29.6,0c3.3,0,5.9,2.6,5.9,5.9c0,3.3-2.7,5.9-5.9,5.9l-29.6,0C16.5,155.9,13.8,153.3,13.8,150z
	 M65.8,205.4l-25.6,14.8c-2.8,1.6-6.5,0.7-8.1-2.2c-1.6-2.8-0.7-6.5,2.2-8.1l25.6-14.8c2.8-1.6,6.5-0.7,8.1,2.2
	C69.6,200.2,68.6,203.8,65.8,205.4z M68,102.6c-1.6,2.8-5.3,3.8-8.1,2.2L34.3,90c-2.8-1.6-3.8-5.3-2.2-8.1c1.6-2.8,5.3-3.8,8.1-2.2
	l25.6,14.8C68.6,96.2,69.6,99.8,68,102.6z M104.8,240.1L90,265.7c-1.6,2.8-5.3,3.8-8.1,2.2c-2.8-1.6-3.8-5.3-2.2-8.1l14.8-25.6
	c1.6-2.8,5.3-3.8,8.1-2.2C105.5,233.7,106.4,237.3,104.8,240.1z M155.9,280.2c0,3.3-2.7,5.9-5.9,5.9c-3.3,0-5.9-2.7-5.9-5.9l0-29.6
	c0-3.3,2.6-5.9,5.9-5.9c3.3,0,5.9,2.7,5.9,5.9L155.9,280.2z M218,267.9c-2.8,1.6-6.5,0.7-8.1-2.2l-14.8-25.6
	c-1.6-2.8-0.7-6.5,2.2-8.1c2.8-1.6,6.5-0.7,8.1,2.2l14.8,25.6C221.8,262.7,220.9,266.3,218,267.9z M220.3,40.2l-14.8,25.6
	c-1.6,2.8-5.3,3.8-8.1,2.2c-2.8-1.6-3.8-5.3-2.2-8.1l14.8-25.6c1.6-2.8,5.3-3.8,8.1-2.2C221,33.8,221.9,37.4,220.3,40.2z
	 M267.9,218.1c-1.6,2.8-5.3,3.8-8.1,2.2l-25.6-14.8c-2.8-1.6-3.8-5.3-2.2-8.1c1.6-2.8,5.3-3.8,8.1-2.2l25.6,14.8
	C268.6,211.7,269.5,215.3,267.9,218.1z M280.2,156l-29.6,0c-3.3,0-5.9-2.6-5.9-5.9c0-3.3,2.7-5.9,5.9-5.9l29.6,0
	c3.3,0,5.9,2.7,5.9,5.9C286.2,153.3,283.5,156,280.2,156z"/>
<g>
</g>
<g>
</g>
<g>
</g>
<g>
</g>
<g>
</g>
<g>
</g>
</svg>
